<svg height="512" viewBox="0 0 58 58" width="512" xmlns="http://www.w3.org/2000/svg"><g id="Page-1" fill="none" fill-rule="evenodd"><g id="026---Algebra-Book" fill-rule="nonzero"><path id="Shape" d="m54 6h2c1.1032019.0032948 1.9967052.89679813 2 2v42c-.0032948 1.1032019-.8967981 1.9967052-2 2h-18.52c-1.2606968-.0090094-2.388653.7817642-2.81 1.97-.8364224 2.4166642-3.1126834 4.037578-5.67 4.037578s-4.8335776-1.6209138-5.67-4.037578c-.421347-1.1882358-1.5493032-1.9790094-2.81-1.97h-18.52c-1.10320187-.0032948-1.9967052-.8967981-2-2v-42c.0032948-1.10320187.89679813-1.9967052 2-2z" fill="#e04c34"/><path id="Shape" d="m54 44v3c0 .5522847-.4477153 1-1 1h-24c0-2.209139 1.790861-4 4-4z" fill="#af8e3d"/><path id="Shape" d="m54 2v42h-21c-2.209139 0-4 1.790861-4 4v-44c0-2.209139 1.790861-4 4-4h19c1.1032019.0032948 1.9967052.89679813 2 2z" fill="#f8e8ab"/><path id="Shape" d="m29 48h-24c-.55228475 0-1-.4477153-1-1v-3h21c2.209139 0 4 1.790861 4 4z" fill="#e2be50"/><path id="Shape" d="m29 4v44c0-2.209139-1.790861-4-4-4h-21v-42c.0032948-1.10320187.89679813-1.9967052 2-2h19c2.209139 0 4 1.790861 4 4z" fill="#f4edc7"/><path id="Shape" d="m12 15c-.2651948-.0000566-.5195073-.1054506-.707-.293l-4-4c-.37897221-.3923789-.37355237-1.01608478.01218142-1.40181858.3857338-.38573379 1.00943969-.39115363 1.40181858-.01218142l4 4c.2859079.2859943.3714219.7160366.216678 1.0896546-.1547439.3736179-.5192821.6172591-.923678.6173454z" fill="#f85360"/><path id="Shape" d="m8 15c-.4043959-.0000863-.76893405-.2437275-.92367798-.6173454-.15474393-.373618-.06922994-.8036603.21667798-1.0896546l4-4c.3923789-.37897221 1.0160848-.37355237 1.4018186.01218142.3857338.3857338.3911536 1.00943968.0121814 1.40181858l-4 4c-.18749273.1875494-.44180519.2929434-.707.293z" fill="#f85360"/><path id="Shape" d="m18 15h-2c-.5522847 0-1-.4477153-1-1s.4477153-1 1-1h2c.5522847 0 1 .4477153 1 1s-.4477153 1-1 1z" fill="#f85360"/><path id="Shape" d="m18 11h-2c-.5522847 0-1-.4477153-1-1 0-.55228475.4477153-1 1-1h2c.5522847 0 1 .44771525 1 1 0 .5522847-.4477153 1-1 1z" fill="#f85360"/><path id="Shape" d="m24 23h-15c-.55228475 0-1-.4477153-1-1s.44771525-1 1-1h15c.5522847 0 1 .4477153 1 1s-.4477153 1-1 1z" fill="#7b669a"/><path id="Shape" d="m24 35h-15c-.55228475 0-1-.4477153-1-1s.44771525-1 1-1h15c.5522847 0 1 .4477153 1 1s-.4477153 1-1 1z" fill="#7b669a"/><path id="Shape" d="m24 31h-7c-.5522847 0-1-.4477153-1-1s.4477153-1 1-1h7c.5522847 0 1 .4477153 1 1s-.4477153 1-1 1z" fill="#7b669a"/><path id="Shape" d="m19 27h-10c-.55228475 0-1-.4477153-1-1s.44771525-1 1-1h10c.5522847 0 1 .4477153 1 1s-.4477153 1-1 1z" fill="#7b669a"/><path id="Shape" d="m23 13c-.5522847 0-1-.4477153-1-1v-1c0-.5522847.4477153-1 1-1 .4851707-.00047298.9000069-.34913653.9839455-.82699124.0839386-.47785472-.1872399-.94702164-.6432053-1.11281187-.4559653-.16579023-.9651545.01963291-1.2077402.43980311-.2843876.45968211-.882589.61017004-1.3506397.33977682-.4680507-.27039323-.6365131-.86378348-.3803603-1.33977682.6652551-1.1493566 2.0069993-1.72457076 3.2981595-1.41394168s2.2244548 1.4331752 2.2941443 2.75934577c.0696894 1.32617061-.7408117 2.54035211-1.9923038 2.98459591v.17c.0000005.2655634-.1056308.5202209-.2936.7078148-.1879691.187594-.4428372.2927163-.7084.2921852z" fill="#f85360"/><circle id="Oval" cx="23" cy="16" fill="#f85360" r="1"/><g fill="#7b669a"><path id="Shape" d="m24 27h-1c-.5522847 0-1-.4477153-1-1s.4477153-1 1-1h1c.5522847 0 1 .4477153 1 1s-.4477153 1-1 1z"/><path id="Shape" d="m13 31h-4c-.55228475 0-1-.4477153-1-1s.44771525-1 1-1h4c.5522847 0 1 .4477153 1 1s-.4477153 1-1 1z"/><path id="Shape" d="m18 39h-9c-.55228475 0-1-.4477153-1-1s.44771525-1 1-1h9c.5522847 0 1 .4477153 1 1s-.4477153 1-1 1z"/><path id="Shape" d="m49 8h-15c-.5522847 0-1-.44771525-1-1s.4477153-1 1-1h15c.5522847 0 1 .44771525 1 1s-.4477153 1-1 1z"/><path id="Shape" d="m49 20h-15c-.5522847 0-1-.4477153-1-1s.4477153-1 1-1h15c.5522847 0 1 .4477153 1 1s-.4477153 1-1 1z"/><path id="Shape" d="m49 16h-7c-.5522847 0-1-.4477153-1-1s.4477153-1 1-1h7c.5522847 0 1 .4477153 1 1s-.4477153 1-1 1z"/><path id="Shape" d="m44 12h-10c-.5522847 0-1-.4477153-1-1s.4477153-1 1-1h10c.5522847 0 1 .4477153 1 1s-.4477153 1-1 1z"/><path id="Shape" d="m49 12h-1c-.5522847 0-1-.4477153-1-1s.4477153-1 1-1h1c.5522847 0 1 .4477153 1 1s-.4477153 1-1 1z"/><path id="Shape" d="m38 16h-4c-.5522847 0-1-.4477153-1-1s.4477153-1 1-1h4c.5522847 0 1 .4477153 1 1s-.4477153 1-1 1z"/><path id="Shape" d="m43 24h-9c-.5522847 0-1-.4477153-1-1s.4477153-1 1-1h9c.5522847 0 1 .4477153 1 1s-.4477153 1-1 1z"/></g><path id="Shape" d="m35 34c-.2651948-.0000566-.5195073-.1054506-.707-.293l-2-2c-.3789722-.3923789-.3735524-1.0160848.0121814-1.4018186s1.0094397-.3911536 1.4018186-.0121814l2 2c.2859079.2859943.3714219.7160366.216678 1.0896546-.1547439.3736179-.5192821.6172591-.923678.6173454z" fill="#f85360"/><path id="Shape" d="m33 36c-.4043959-.0000863-.7689341-.2437275-.923678-.6173454-.1547439-.373618-.0692299-.8036603.216678-1.0896546l4-4c.3923789-.3789722 1.0160848-.3735524 1.4018186.0121814s.3911536 1.0094397.0121814 1.4018186l-4 4c-.1874927.1875494-.4418052.2929434-.707.293z" fill="#f85360"/><path id="Shape" d="m43 36h-2c-.5522847 0-1-.4477153-1-1s.4477153-1 1-1h2c.5522847 0 1 .4477153 1 1s-.4477153 1-1 1z" fill="#f85360"/><path id="Shape" d="m43 32h-2c-.5522847 0-1-.4477153-1-1s.4477153-1 1-1h2c.5522847 0 1 .4477153 1 1s-.4477153 1-1 1z" fill="#f85360"/><path id="Shape" d="m48 34c-.5522847 0-1-.4477153-1-1v-1c0-.5522847.4477153-1 1-1 .4851707-.000473.9000069-.3491365.9839455-.8269912.0839386-.4778548-.1872399-.9470217-.6432053-1.1128119-.4559653-.1657902-.9651545.0196329-1.2077402.4398031-.1727115.3209394-.5063525.5225002-.8707953.5260692-.3644429.003569-.7019673-.1914191-.880931-.5089145s-.1710225-.7072132.0207263-1.0171547c.6652551-1.1493566 2.0069993-1.7245708 3.2981595-1.4139417s2.2244548 1.4331752 2.2941443 2.7593458c.0696894 1.3261706-.7408117 2.5403521-1.9923038 2.9845959v.17c.0000005.2655634-.1056308.5202209-.2936.7078148-.1879691.187594-.4428372.2927163-.7084.2921852z" fill="#f85360"/><circle id="Oval" cx="48" cy="37" fill="#f85360" r="1"/></g></g></svg>