<svg id="Layer_1" enable-background="new 0 0 512 512" height="512" viewBox="0 0 512 512" width="512" xmlns="http://www.w3.org/2000/svg"><g><g><g><g fill="#ffb185"><path d="m150.251 185.28c-5.379 5.443-8.29 12.655-8.195 20.306.189 15.466 12.932 28.05 28.406 28.05h3.5v-56.796h-3.5c-7.655-.002-14.832 2.996-20.211 8.44z"/><path d="m363.509 185.28c-5.379-5.443-12.557-8.441-20.211-8.441h-3.5v56.796h3.5c15.473 0 28.216-12.583 28.406-28.05.095-7.651-2.816-14.862-8.195-20.305z"/></g><path d="m441.74 511.99h-371.48c-13.08 0-23.34-11.2-22.18-24.22l4.56-50.91c2.83-31.59 25.74-57.76 56.71-64.76l56.17-12.72 29.57-6.7 14.14-3.2 95.3.43 14.5 3.28 29.43 6.65v.01l41.89 9.47 12.28 2.78c30.98 7 53.9 33.17 56.73 64.78l4.56 50.89c1.16 13.02-9.1 24.22-22.18 24.22z" fill="#cc753a"/><path d="m463.92 487.774c1.16 13.015-9.1 24.221-22.18 24.221h-24c13.08 0 23.34-11.206 22.18-24.221l-4.56-50.891c-2.46-27.5-20.07-55.999-45.01-67.565l12.28 2.779c30.98 7.007 53.9 33.178 56.73 64.786z" fill="#c6542c"/><path d="m319.03 353.19-49 158.81h-25.8l-49.14-159.32z" fill="#d6dced"/><path d="m244.106 408.93-10.931-28.605 23.955-9.548 23.952 9.548-11.216 28.605z" fill="#ff755a"/><path d="m291.956 490.729-21.926 21.271h-25.8l-21.82-21.889 21.696-81.181h25.76z" fill="#f43838"/><g fill="#c6542c"><path d="m132.84 432.454v79.541h-15v-79.541c0-4.138 3.35-7.497 7.5-7.497 4.14 0 7.5 3.359 7.5 7.497z"/><path d="m394.16 432.454v79.541h-15v-79.541c0-4.138 3.36-7.497 7.5-7.497s7.5 3.359 7.5 7.497z"/></g><path d="m304.35 349.255.18.66c-2.74 2.349-5.59 4.718-8.54 7.117-10.98 8.917-24.7 13.775-38.86 13.745-14.16.03-27.9-4.838-38.89-13.775-3.13-2.529-6.13-5.038-9.01-7.517 2.04-7.707 3.22-15.604 3.52-23.541.06-1.42.09-2.829.09-4.248 0-5.358-.39-10.716-1.19-16.044l-2.42-16.204h95.3l-2.46 16.474c-1.01 6.728-1.38 13.515-1.12 20.283.3 7.765 1.44 15.493 3.4 23.05z" fill="#ffd6ae"/><path d="m302.07 305.921c-1.01 6.728-1.38 13.515-1.12 20.283-2.23 1.909-4.54 3.829-6.94 5.768-10.39 8.437-23.49 13.095-36.9 13.095h-.23c-13.4 0-26.52-4.658-36.93-13.135-2.49-2.019-4.89-4.009-7.2-5.988.06-1.42.09-2.829.09-4.248 0-5.358-.39-10.716-1.19-16.044l-2.42-16.204h95.3z" fill="#ffb185"/><path d="m345.52 225.41c.19 2.26.29 4.54.29 6.88 0 22.07-16.94 46.5-51.8 74.69-10.39 8.44-23.49 13.09-36.9 13.09h-.23c-13.4 0-26.52-4.66-36.93-13.13-34.83-28.16-51.76-52.59-51.76-74.66 0-2.35.09-4.62.28-6.74.68-6.99.91-16.77.73-27.35-.09-5.37-.29-10.95-.59-16.48-.34-6.22-.8-12.38-1.39-18.1l88.78-40 90.78 40c-.62 6.03-1.1 12.54-1.44 19.11-.29 5.48-.48 11-.56 16.3-.16 10.23.08 19.64.74 26.39z" fill="#ffd6ae"/><path d="m257.13 370.777-41.988 30.276c-2.064 1.489-4.981.511-5.731-1.92l-14.325-46.443 17.244-20.475z" fill="#e6f3ff"/><path d="m257.13 370.777 41.988 30.276c2.064 1.489 4.981.511 5.731-1.92l14.17-45.941-17.624-20.518z" fill="#e6f3ff"/><g><path d="m276.185 256.747h-40.372c-4.142 0-7.5 3.357-7.5 7.497s3.358 7.497 7.5 7.497h40.372c4.143 0 7.5-3.357 7.5-7.497s-3.358-7.497-7.5-7.497z" fill="#ffb185"/></g></g><path d="m390.52 121.7c0 29.278-23.82 53.096-53.11 53.096-10.97 0-21.38-3.4-30.04-9.349h-.01c-8.05-5.51-14.57-13.239-18.61-22.468-9.86 7.389-21.9 11.419-34.3 11.419-11.39 0-22.26-3.29-31.64-9.539-8.61 18.588-27.57 30.847-48.23 30.847-29.28 0-53.1-23.818-53.1-53.095 0-19.228 10.6-37.097 27.27-46.406-3.9-5.439-6.01-11.969-6.01-18.728 0-17.728 14.42-32.157 32.16-32.157 3.4 0 6.73.53 9.92 1.56 5.61-15.961 20.82-26.88 37.97-26.88 12.24 0 23.62 5.48 31.23 14.859 5.85-9.15 16.07-14.859 27.11-14.859 11.11 0 21.26 5.629 27.14 14.889.01.01.01.02.01.02 6.25-3.769 13.36-5.75 20.74-5.75 22.19 0 40.24 18.049 40.24 40.237 0 8.989-2.96 17.609-8.42 24.638 18.15 8.889 29.68 27.217 29.68 47.666z" fill="#49525e"/><path d="m390.52 121.7c0 29.278-23.82 53.096-53.11 53.096-10.97 0-21.38-3.4-30.04-9.349 48.383 1.406 63.15-25.498 63.15-43.746 0-12.739-7.08-24.128-18.48-29.717-5.4-2.65-9.32-7.579-10.68-13.439s-.01-12.019 3.68-16.769c2.76-3.56 4.22-7.839 4.22-12.379 0-11.159-7.8-34.137-40.98-34.487 6.25-3.769 13.36-5.75 20.74-5.75 22.19 0 40.24 18.049 40.24 40.237 0 8.989-2.96 17.609-8.42 24.638 18.15 8.888 29.68 27.216 29.68 47.665z" fill="#31353a"/></g><g fill="#9ca9b7"><path d="m208.05 198.06-5.74 13.86-33.11-13.73c-.09-5.37-.29-10.95-.59-16.48z"/><path d="m345.34 182.72c-.29 5.48-.48 11-.56 16.3l-33.57 12.97-5.4-14z"/><path d="m242.296 197.822h29.098v15h-29.098z"/></g><path d="m244.23 511.99h-35.35l-43.36-152.61 29.57-6.7z" fill="#c6542c"/><path d="m348.46 359.84v.01l-43.23 152.14h-35.2l49-158.8z" fill="#c6542c"/><g><path d="m248.08 189.79v30.88c0 8.72-7.09 15.81-15.81 15.81h-21.5c-8.71 0-15.81-7.09-15.81-15.81v-30.88c0-2.76 2.24-5 5-5h43.12c2.76 0 5 2.24 5 5z" fill="#e6f3ff"/><path d="m248.08 189.79v30.88c0 8.72-7.09 15.81-15.81 15.81h-17c8.73 0 15.81-7.08 15.81-15.81v-30.88c0-2.76-2.24-5-5-5h17c2.76 0 5 2.24 5 5z" fill="#d6dced"/><path d="m319.295 189.79v30.88c0 8.72-7.09 15.81-15.81 15.81h-21.5c-8.71 0-15.81-7.09-15.81-15.81v-30.88c0-2.76 2.24-5 5-5h43.12c2.76 0 5 2.24 5 5z" fill="#e6f3ff"/><path d="m319.295 189.79v30.88c0 8.72-7.09 15.81-15.81 15.81h-17c8.73 0 15.81-7.08 15.81-15.81v-30.88c0-2.76-2.24-5-5-5h17c2.76 0 5 2.24 5 5z" fill="#d6dced"/></g></g></svg>